# xmcd
#
# Track frame offsets: 
#        150
#        15308
#        29768
#        47100
#        58250
#        75193
#        88010
#        110698
#        120118
#        132643
#        144795
#        159170
#
# Disc length: 2312 seconds
#
# Revision: 0
# Processed by: cddbd v1.5.2PL0 Copyright (c) Steve Scherf et al.
# Submitted via: ExactAudioCopyFreeDBPlugin 1.0
#
DISCID=9009060c
DTITLE=Sidney Maiden - Trouble An' Blues
DYEAR=1994
DGENRE=Blues
TTITLE0=Buy Me An Airplane
TTITLE1=Sweet Little Woman
TTITLE2=My Black Name
TTITLE3=Sidney's Fox Chase
TTITLE4=San Quentin Blues
TTITLE5=Tell Me, Somebody
TTITLE6=Blues An' Trouble
TTITLE7=Hand-Me-Down Baby
TTITLE8=Sidney's Worried Life Blues
TTITLE9=Me and My Chauffeur
TTITLE10=Coal Black Mare
TTITLE11=I'm Going Back Home
EXTD=
EXTT0=
EXTT1=
EXTT2=
EXTT3=
EXTT4=
EXTT5=
EXTT6=
EXTT7=
EXTT8=
EXTT9=
EXTT10=
EXTT11=
PLAYORDER=
